<?xml version="1.0" encoding="UTF-8"?>
<svg id="Layer_1" data-name="Layer 1" xmlns="http://www.w3.org/2000/svg" xmlns:xlink="http://www.w3.org/1999/xlink" viewBox="0 0 512 512">
  <defs>
    <style>
      .cls-1 {
        fill: #3a86e8;
      }

      .cls-2 {
        fill: url(#linear-gradient-2);
      }

      .cls-3 {
        fill: url(#New_Gradient_Swatch);
      }

      .cls-4 {
        fill: url(#linear-gradient);
      }

      .cls-5 {
        fill: #495d82;
      }

      .cls-6 {
        fill: url(#New_Gradient_Swatch-2);
      }
    </style>
    <linearGradient id="New_Gradient_Swatch" data-name="New Gradient Swatch" x1="471.02" y1="-35.95" x2="338.01" y2="629.88" gradientUnits="userSpaceOnUse">
      <stop offset="0" stop-color="#1db9fb"/>
      <stop offset=".43" stop-color="#2887ea"/>
      <stop offset=".65" stop-color="#3774e3"/>
      <stop offset="1" stop-color="#6293ec"/>
    </linearGradient>
    <linearGradient id="linear-gradient" x1="420.4" y1="272.27" x2="199.63" y2="391.91" gradientUnits="userSpaceOnUse">
      <stop offset="0" stop-color="#34a4f2"/>
      <stop offset=".16" stop-color="#1d92ed"/>
      <stop offset=".35" stop-color="#2a80e6"/>
      <stop offset=".55" stop-color="#3474e2"/>
      <stop offset=".73" stop-color="#467fe5"/>
      <stop offset="1" stop-color="#6b97eb"/>
    </linearGradient>
    <linearGradient id="linear-gradient-2" x1="332.59" y1="110.24" x2="111.82" y2="229.89" gradientUnits="userSpaceOnUse">
      <stop offset="0" stop-color="#34a4f2"/>
      <stop offset=".21" stop-color="#1d92ed"/>
      <stop offset=".27" stop-color="#2488e9"/>
      <stop offset=".42" stop-color="#3474e2"/>
      <stop offset=".57" stop-color="#3876e2"/>
      <stop offset=".74" stop-color="#457fe4"/>
      <stop offset=".9" stop-color="#5a8ce8"/>
      <stop offset="1" stop-color="#6b97eb"/>
    </linearGradient>
    <linearGradient id="New_Gradient_Swatch-2" data-name="New Gradient Swatch" x1="31.67" y1="-41.32" x2="175.09" y2="567.63" xlink:href="#New_Gradient_Swatch"/>
  </defs>
  <path class="cls-5" d="M0,276.49v-41.13C0,249.07,0,262.79,0,276.49Z"/>
  <path class="cls-1" d="M512,276.49h-.37v-41.13h.37c0,13.7,0,27.43,0,41.13Z"/>
  <path class="cls-3" d="M511.63,235.36v41.13c-16.62.25-32-.3-42.75,14.25-12.43,17.13-5.06,44.12-1.93,64.96,2.03,35.77,20.25,82-.78,114.15-4.43,6.4-9.71,12.12-16.08,16.34-8.37,5.51-19.32,9.78-29.3,11.7-11.27,2.16-22.08,1.77-34.72,1.83-8.42.04-17.24.31-25.62.02-.71-.02-1.41.04-2.04-.39v-38.52c13.97-.26,28.03.56,41.94-.47,19.35-3.15,30.09-17.11,29.56-35.92-.17-6.16-1.47-12.33-2.08-18.53-2.6-23.51-6.1-45.98-8.75-69.72-1.26-12.5-1.86-25.38-.08-37.77,2.78-19.09,15.08-37.88,35.08-41.56-11.01-3.97-20.52-11.18-26.69-21.16-9.57-15.46-10.59-33.96-9.18-51.75,2.13-26.8,7.26-54.26,10.44-81.02.83-7.01,1.56-15.12.97-21.46-.49-4.91-1.83-10.26-3.9-13.98-2.95-5.59-9.73-11.38-15.4-13.91-6.38-2.9-12.75-2.98-21.07-3.32l-30.85-.36V12.13c11.4-.03,22.81.04,34.21.02,26.06-.35,54.88,3.45,70.6,26.44,15.66,22.11,14.2,44.64,10.54,69.99-2.41,16.97-5.45,33.88-7.78,50.87-.81,16.96-6.71,32.12-2.3,49.31,6.27,25.31,25.07,26.53,47.96,26.61Z"/>
  <g>
    <path class="cls-4" d="M380.6,374.88c-4.42-11.7-15.6-17.34-27.75-17.01-22.56.01-48.27,12.35-68.34-2.92-16.11-12.13-17.45-38.45-4.11-53.06,18.37-18.9,46.23-6.81,68.99-6.85,21.28.11,33.15-18.08,28.51-37.84-7.63-26.41-48.59-29.15-71.71-27.53-40.58,2.58-73.89,28.42-84.03,68.55-3.89,15.73-4.49,32.55-2.91,48.76,4.4,46.68,40.08,80.02,86.89,80.08h.15c12.75.1,25.71.55,38.25-2.14,16.09-3.59,34.22-12.52,37.59-29.98,1.39-6.61.95-13.81-1.54-20.06Z"/>
    <path class="cls-2" d="M293.17,192.68c1.6-8.25,2.05-18.43,1.63-27.61.37-43.92-27.28-60.32-65.18-62-21.48-1.48-46.47,1.01-67.01.3h-.12c-9.05-.25-19.12,1.71-24,10.21-6.09,11.8-7.1,34.01,3.58,43.49,9.19,8.86,22.34,4.15,24.47,10.17.11.88-.59,1.75-1.57,2.51-34.08,18.37-28.7,64.73-28.48,97.89.11,8.28.25,16.93,5.37,23.76,11.31,14.43,38.23,13.62,47.44-2.67,7.04-14.54,3.32-30.86,4.4-46.28.76-2.3,3.08-3.73,5.49-3.54,39.51,1.56,87.26-1.02,93.97-46.23ZM246.65,180.2c-3.48,17.3-17.64,14.7-31.39,15.15l-18.63-.08c-7.85,0-6.79-13.87-6.79-20.67,0-4.93-1.65-17.91,5.76-17.91,4.58,0,24.65-.97,34.6-.65,4.01.13,7.91,1.51,10.94,4.14,5.63,4.89,6.05,11.61,5.51,20.02Z"/>
  </g>
  <path class="cls-1" d="M239.56,103.37c-25.64.46-51.36-.61-76.99,0h76.99Z"/>
  <path class="cls-6" d="M.56,235.36v41.13c16.62.25,32-.3,42.75,14.25,12.43,17.13,5.06,44.12,1.93,64.96-2.03,35.77-20.25,82,.78,114.15,4.43,6.4,9.71,12.12,16.08,16.34,8.37,5.51,19.32,9.78,29.3,11.7,11.27,2.16,22.08,1.77,34.72,1.83,8.42.04,17.24.31,25.62.02.71-.02,1.41.04,2.04-.39v-38.52c-13.97-.26-28.03.56-41.94-.47-19.35-3.15-30.09-17.11-29.56-35.92.17-6.16,1.47-12.33,2.08-18.53,2.6-23.51,6.1-45.98,8.75-69.72,1.26-12.5,1.86-25.38.08-37.77-2.78-19.09-15.08-37.88-35.08-41.56,11.01-3.97,20.52-11.18,26.69-21.16,9.57-15.46,10.59-33.96,9.18-51.75-2.13-26.8-7.26-54.26-10.44-81.02-.83-7.01-1.56-15.12-.97-21.46.49-4.91,1.83-10.26,3.9-13.98,2.95-5.59,9.73-11.38,15.4-13.91,6.38-2.9,12.75-2.98,21.07-3.32l30.85-.36V12.13c-11.4-.03-22.81.04-34.21.02-26.06-.35-54.88,3.45-70.6,26.44-15.66,22.11-14.2,44.64-10.54,69.99,2.41,16.97,5.45,33.88,7.78,50.87.81,16.96,6.71,32.12,2.3,49.31-6.27,25.31-25.07,26.53-47.96,26.61Z"/>
</svg>